<svg xmlns="http://www.w3.org/2000/svg" version="1.1" xmlns:xlink="http://www.w3.org/1999/xlink" xmlns:svgjs="http://svgjs.dev/svgjs" width="1000" height="141" viewBox="0 0 1000 141"><g transform="matrix(1,0,0,1,0.15574237035934857,-0.624636008522728)"><svg viewBox="0 0 389 55" data-background-color="#000000" preserveAspectRatio="xMidYMid meet" height="141" width="1000" xmlns="http://www.w3.org/2000/svg" xmlns:xlink="http://www.w3.org/1999/xlink"><g id="tight-bounds" transform="matrix(1,0,0,1,-0.06058378206978432,0.24365234375)"><svg viewBox="0 0 389.12116756413957 54.51269531249999" height="54.51269531249999" width="389.12116756413957"><g><svg viewBox="0 0 389.12116756413957 54.51269531249999" height="54.51269531249999" width="389.12116756413957"><g><svg viewBox="0 0 389.12116756413957 54.51269531249999" height="54.51269531249999" width="389.12116756413957"><g><svg viewBox="0 0 389.12116756413957 54.51269531249999" height="54.51269531249999" width="389.12116756413957"><g><svg viewBox="0 0 389.12116756413957 54.51269531249999" height="54.51269531249999" width="389.12116756413957"><g><svg><g></g><g></g></svg></g><g><svg><g></g><g><svg></svg></g></svg></g><g id="text-0"><svg viewBox="0 0 389.12116756413957 54.51269531249999" height="54.51269531249999" width="389.12116756413957"><g><svg xmlns="http://www.w3.org/2000/svg" xmlns:xlink="http://www.w3.org/1999/xlink" version="1.1" x="0" y="0" viewBox="16.87270719162379 16.50025 67.25458561675245 64.99975" enable-background="new 0 0 100 100" xml:space="preserve" height="54.51269531249999" width="56.40373592351464" class="icon-ju-0" data-fill-palette-color="accent" id="ju-0"><path fill="#00ffef" d="M82.174 39.536l-28.627-22c-1.797-1.381-4.297-1.381-6.094 0l-28.627 22c-1.698 1.305-2.376 3.546-1.687 5.573 0.416 1.224 1.274 2.206 2.361 2.792V76.5c0 2.762 2.239 5 5 5h52c2.762 0 5-2.238 5-5V47.901c1.086-0.586 1.945-1.568 2.361-2.792C84.55 43.082 83.872 40.84 82.174 39.536zM71.5 71.5h-16v-12c0-2.762-2.238-5-5-5-2.761 0-5 2.238-5 5v12h-16V43.944l21-16.138 21 16.138V71.5z" data-fill-palette-color="accent"></path></svg></g><g transform="matrix(1,0,0,1,69.27385311101463,0)"><svg width="319.84731445312497" viewBox="4.32 -33.08 197.67000000000002 33.69" height="54.51269531249999" data-palette-color="#ffffff"><path d="M10.79-20.58L10.79 0.15Q9.62 0 6.27 0L6.27 0 4.32 0 4.32-32.57Q5.88-32.47 7.76-32.47 9.64-32.47 10.42-32.67L10.42-32.67 18.63-18.73 26.51-32.67Q27.29-32.47 29.49-32.47 31.69-32.47 33.25-32.57L33.25-32.57 33.25 0 31.3 0Q27.95 0 26.78 0.15L26.78 0.15 26.78-21.73 18.8-7.45 10.79-20.58ZM42.53 0L42.53-32.57Q44.97-32.47 45.48-32.47L45.48-32.47 47.24-32.47Q48.53-32.47 49.31-32.67L49.31-32.67 49.29 0 42.53 0ZM64.84-5.86L74.8-5.86Q76.31-5.86 76.9-6.15L76.9-6.15 77-6.13 76.75 0 58.47 0 58.47-32.64Q59.13-32.59 59.93-32.57L59.93-32.57 61.64-32.52Q63.35-32.47 65.35-32.47L65.35-32.47Q70.94-32.47 76.41-32.67L76.41-32.67Q76.14-30.52 76.14-26.93L76.14-26.93Q76.14-26.54 76.19-26.34L76.19-26.34 76.14-26.27Q74.87-26.64 72.53-26.64L72.53-26.64 64.84-26.64 64.84-20.41 70.62-20.41Q73.31-20.41 73.85-20.56L73.85-20.56 73.92-14.53Q72.75-14.65 70.89-14.65L70.89-14.65 64.84-14.65 64.84-5.86ZM103.12-30.66L103.12-30.66 102.65-23.49 102.48-23.44Q100.68-26.15 96.33-26.95L96.33-26.95Q94.96-27.22 93.71-27.22 92.45-27.22 91.56-27 90.67-26.78 90.03-26.37L90.03-26.37Q88.69-25.49 88.69-24.07L88.69-24.07Q88.69-22.22 89.86-21.29L89.86-21.29Q91.33-20.17 94.72-19.71 98.11-19.26 100.16-18.48 102.21-17.7 103.53-16.5L103.53-16.5Q106.02-14.26 106.02-10.16L106.02-10.16Q106.02-4.79 101.97-1.88L101.97-1.88Q98.5 0.61 93.23 0.61L93.23 0.61Q88.98 0.61 84.83-1L84.83-1Q83.46-1.54 82.44-2.25L82.44-2.25 82.71-10.4 82.81-10.47Q85.83-5.25 92.74-5.25L92.74-5.25Q97.65-5.25 99.24-7.62L99.24-7.62Q99.77-8.42 99.77-9.41 99.77-10.4 99.46-11.05 99.14-11.69 98.41-12.16L98.41-12.16Q96.99-13.09 93.64-13.4 90.3-13.72 88.18-14.6 86.05-15.48 84.78-16.77L84.78-16.77Q82.49-19.12 82.49-23.32L82.49-23.32Q82.49-27.66 85.54-30.35L85.54-30.35Q88.64-33.08 93.9-33.08 99.16-33.08 103.12-30.66ZM111.93-29.54L111.93-30.27Q111.93-31.08 111.86-32.47L111.86-32.47 135-32.47 120.79-5.86 129.65-5.86Q133.12-5.86 133.74-6.07 134.37-6.27 134.73-6.45L134.73-6.45 134.73 0.37Q133.68 0.27 133 0.2 132.31 0.12 131.56 0.07L131.56 0.07Q130.41 0 127.11 0L127.11 0 110.68 0 125.38-26.61 117.69-26.61Q112.93-26.61 111.64-26.1L111.64-26.1Q111.93-27.32 111.93-29.54L111.93-29.54ZM147.89-9.89L147.89 0.15Q146.2 0 143.59 0L143.59 0 141.66 0 141.66-32.57 142.64-32.52Q143.66-32.47 144.18-32.47L144.18-32.47 144.88-32.47Q147.03-32.47 147.89-32.67L147.89-32.67 147.89-18.87 157.78-32.57Q159.34-32.47 160.41-32.47L160.41-32.47 161.76-32.47Q164.27-32.47 165.34-32.67L165.34-32.67 155.92-20.36 165.2-1.95Q165.78-0.61 166.3 0L166.3 0 164.81 0Q159.66 0 158.39 0.2L158.39 0.2Q158.12-1.44 157.65-2.66L157.65-2.66 151.43-14.53 147.89-9.89ZM173.45-3.86Q171.23-5.98 169.94-8.96 168.66-11.94 168.66-15.49 168.66-19.04 169.86-22.22 171.05-25.39 173.28-27.81 175.5-30.22 178.65-31.65 181.8-33.08 185.7-33.08L185.7-33.08Q192.44-33.08 197.06-28.83L197.06-28.83Q201.99-24.29 201.99-16.58L201.99-16.58Q201.99-9.11 196.91-4.15L196.91-4.15Q193.78-1.1 189.46 0.05L189.46 0.05Q187.34 0.61 184.49 0.61 181.65 0.61 178.66-0.56 175.67-1.73 173.45-3.86ZM175.45-15.82L175.45-15.82Q175.45-13.55 176.21-11.65 176.96-9.74 178.31-8.37L178.31-8.37Q181.16-5.49 185.65-5.49L185.65-5.49Q189.93-5.49 192.51-8.25L192.51-8.25Q195.15-11.11 195.15-16.04L195.15-16.04Q195.15-20.68 192.64-23.78L192.64-23.78Q189.93-27.1 185.21-27.1L185.21-27.1Q180.65-27.1 177.96-23.73L177.96-23.73Q175.45-20.58 175.45-15.82Z" opacity="1" transform="matrix(1,0,0,1,0,0)" fill="#ffffff" class="undefined-text-0" data-fill-palette-color="primary"></path></svg></g></svg></g></svg></g></svg></g></svg></g></svg></g><defs></defs></svg><rect width="389.12116756413957" height="54.51269531249999" fill="none" stroke="none" visibility="hidden"></rect></g></svg></g></svg>